<?xml version="1.0" encoding="UTF-8"?>
<svg id="Beskrivende_Logo" xmlns="http://www.w3.org/2000/svg" viewBox="0 0 277.48 275.47">
  <defs>
    <style>
      .cls-1 {
        fill: #be4675;
      }

      .cls-2 {
        fill: #fcf8f5;
      }
    </style>
  </defs>
  <circle class="cls-2" cx="138.74" cy="137.73" r="134.73"/>
  <g>
    <path class="cls-1" d="M28.63,129.15c1.37-28.35,15.47-59.96,46.85-82.51,18.28-13.14,39.04-19.29,61.56-19.97,14.35-.43,28.17,1.74,41.66,6.55,20.78,7.42,37.69,19.83,50.43,38.03,15.77,22.53,21.95,47.43,19.05,74.59-3.93,36.8-21.15,66.13-52.52,85.64-28.19,17.53-59.04,22.18-91.34,12.16-27.34-8.48-48.49-24.84-62.2-50.15-9.21-17.01-13.67-35.35-13.48-64.34ZM141.1,41.55c-57.93-.65-97.4,43.91-98.13,94.74-.8,55.38,40.57,97.29,93.26,97.53,52.54.24,96.8-39.6,98.4-97.31,1.45-52.1-41.31-95.3-93.53-94.97Z"/>
    <path class="cls-1" d="M201.59,146.69c-2.33,10.08-6.28,19.41-12.33,27.67-10.83,14.79-24.45,26.12-42.81,29.74-21.44,4.23-39.59-2.85-54.49-18.52-8.78-9.23-13.01-20.8-16.22-32.83-.43-1.61-.85-3.22-1.35-5.11-2.6.73-4.87,1.51-7.19,1.98-3.44.7-4.57-.49-6.14-5.46-.92-2.9-1.02-5.11,2.56-6.19,8.79-2.65,17.54-5.47,26.3-8.21,2.67-.83,4.73-.37,5.83,2.55,1.27,3.34.69,6.56-1.88,8-2.1,1.17-4.38,2-6.93,3.14,1.27,7.89,4.08,15.31,7.8,22.33,14.59,27.54,46.87,33.44,71.85,13.15,11.48-9.32,18.47-21.58,22.6-35.62.1-.33.01-.71.01-1.23-.81-.43-1.64-.9-2.5-1.3-5.64-2.62-6.64-5.99-2.94-11.17.65-.92,2.86-1.63,3.88-1.23,8.56,3.35,17.01,6.95,25.47,10.55,3.23,1.37,2.03,3.94,1.39,6.23-.69,2.46-1.73,4.8-4.93,4.07-2.56-.59-5.03-1.58-7.99-2.53Z"/>
    <path class="cls-1" d="M129.7,116.5c-1.16,2.83-3.75,3.7-6.65,2.82-2.77-.84-4.62-2.66-4.47-5.8.09-1.92.44-3.83.57-5.74.24-3.41-.28-7.03-1.48-10.14-1.69-4.4-5.57-5.06-8.39-1.24-2.86,3.89-4.68,8.59-6.66,13.06-1.26,2.84-1.8,6-3,8.87-1.16,2.77-3.82,3.44-6.43,2.8-2.71-.66-4.7-2.51-4.98-5.55-.88-9.56,9.42-27.58,18.17-31.88,10.83-5.32,23.67,1.96,25.37,14.43.34,2.51.77,5.05.6,7.58-.15,2.16-1.26,7.39-2.65,10.77Z"/>
    <path class="cls-1" d="M184.95,116.5c-1.16,2.83-3.75,3.7-6.65,2.82-2.77-.84-4.62-2.66-4.47-5.8.09-1.92.44-3.83.57-5.74.24-3.41-.28-7.03-1.48-10.14-1.69-4.4-5.57-5.06-8.39-1.24-2.86,3.89-4.68,8.59-6.66,13.06-1.26,2.84-1.8,6-3,8.87-1.16,2.77-3.82,3.44-6.43,2.8-2.71-.66-4.7-2.51-4.98-5.55-.88-9.56,9.42-27.58,18.17-31.88,10.83-5.32,23.67,1.96,25.37,14.43.34,2.51.77,5.05.6,7.58-.15,2.16-1.26,7.39-2.65,10.77Z"/>
  </g>
</svg>