<?xml version="1.0" encoding="UTF-8"?>
<svg id="Beskrivende_Logo" xmlns="http://www.w3.org/2000/svg" viewBox="0 0 469.02 223.94">
  <defs>
    <style>
      .cls-1 {
        fill: none;
      }

      .cls-2 {
        fill: #be4675;
      }
    </style>
  </defs>
  <path class="cls-1" d="M135.63,108.56c-.03.06-.06.13-.06.41,0,.59.06.81.06.81.28.44.75,1.03,1.38,1.66l.22.22.19.22c4.13,5,7.97,9.69,11.44,14-.81,1.53-1.59,3.1-2.31,4.72-.22.5-.44,1.03-.63,1.56-3.97-4.94-8.41-10.35-13.32-16.29-1-1-1.78-2-2.38-3-.63-1-.91-2.31-.91-3.91,0-1.41.34-2.66,1.03-3.75.72-1.09,1.47-2.25,2.25-3.44,8.22-9.6,15.16-18.1,20.88-25.51,4.47-5.82,8.16-11.25,11-16.25.03,3.75.34,7.22.94,10.35-2.09,3.13-4.44,6.38-7,9.72-5.66,7.35-12.66,15.91-20.82,25.44-.69,1.06-1.34,2.09-1.97,3.03Z"/>
  <path class="cls-1" d="M165.95,202.65c1.69,1.25,3.44,2.44,5.28,3.53-1.91,2.09-4.16,3.94-6.72,5.5-5.06,3.1-11.25,4.66-18.41,4.66-11.41,0-20.32-2.94-26.48-8.75-5.44-5.09-9.78-10.91-12.91-17.25-3.31-5.25-6.31-9.97-9.06-14.19-2.81-4.34-5.56-8.78-8.1-13.16-2.47-4.19-5.28-8.81-8.44-13.72-.16-.31-.34-.63-.5-.88-.06,3.25-.19,6.94-.44,11.07-.28,5.19-.59,10.31-.91,15.32-.31,5.16-.78,9.72-1.41,13.57l-.09.41c-2.09,8.88-5.85,15.69-11.16,20.26-5.44,4.69-12.82,7.06-21.94,7.06s-16.54-2.44-21.97-7.28c-5.25-4.63-9-11.35-11.1-20-2.09-9.44-3.41-20.66-3.91-33.48-.5-12.47-.75-27.35-.75-44.23,0-15.85.25-30.29.75-42.85.5-12.85,1.69-24.07,3.56-33.38,1.91-8.66,5.69-15.38,11.25-20.07,5.63-4.75,13.1-7.16,22.16-7.16s16.54,2.44,22.01,7.25c5.25,4.66,8.97,11.16,11.07,19.35l.09.41c1.03,5.63,1.78,12.1,2.19,19.22.41,6.78.59,13.91.63,21.16.59-.81,1.28-1.94,2.16-3.41,2.5-3.94,4.91-7.85,7.41-11.94,2.53-4.13,5.09-8.25,7.72-12.38,2.56-4.06,5.16-8,7.69-11.72,4.28-8.25,9.1-14.88,14.35-19.69,5.97-5.47,14.07-8.25,24.04-8.25,11.47,0,20.1,3.31,25.63,9.88,2.63,3.13,4.63,6.47,5.94,10.03-1.75,2.06-3.31,4.28-4.66,6.6-.81-4.56-2.81-8.75-6.06-12.6-4.28-5.09-11.25-7.66-20.85-7.66-8.41,0-15,2.19-19.79,6.6-4.81,4.41-9.22,10.5-13.22,18.32-2.59,3.78-5.19,7.75-7.78,11.85-2.63,4.1-5.16,8.19-7.66,12.32-2.5,4.1-4.97,8.03-7.35,11.85-2,3.41-3.72,5.75-5.13,7.03-1.41,1.31-2.78,1.97-4.19,1.97-1.59.19-2.75-.47-3.44-1.97-.72-1.5-1.06-3.44-1.06-5.85,0-7.6-.22-14.85-.59-21.76-.41-6.91-1.13-13.03-2.09-18.44-1.81-7-4.88-12.41-9.16-16.22-4.31-3.78-10.25-5.69-17.88-5.69s-13.63,1.91-18.13,5.69c-4.5,3.81-7.56,9.31-9.16,16.5-1.81,9-2.97,19.82-3.44,32.42-.53,12.6-.75,26.82-.75,42.6,0,16.82.22,31.48.75,43.98.47,12.5,1.72,23.26,3.75,32.26,1.78,7.41,4.84,13,9.13,16.78,4.31,3.81,10.25,5.72,17.85,5.72s13.57-1.84,17.88-5.56c4.28-3.69,7.35-9.35,9.16-16.94.59-3.63,1.03-7.91,1.34-12.91.28-5,.59-10.1.91-15.32.28-5.19.44-9.69.44-13.5,0-2.59.31-4.6.91-6,.59-1.38,1.69-2.1,3.28-2.1,1.41,0,2.66.72,3.75,2.1,1.09,1.41,2.47,3.5,4.06,6.31,3.19,5,6.03,9.66,8.53,13.94,2.5,4.31,5.16,8.63,7.97,12.91,2.78,4.31,5.91,9.16,9.31,14.57,2.78,5.78,6.69,11.03,11.69,15.75,5,4.69,12.41,7.03,22.19,7.03,6,0,11.07-1.25,15.16-3.75,1.75-1.06,3.31-2.31,4.69-3.69Z"/>
  <path class="cls-2" d="M173.42,182.8c0,4.78-1,9.28-3,13.5-.22.44-.44.87-.72,1.31-1,1.88-2.25,3.53-3.75,5.03-1.38,1.38-2.94,2.63-4.69,3.69-4.1,2.5-9.16,3.75-15.16,3.75-9.78,0-17.19-2.34-22.19-7.03-5-4.72-8.91-9.97-11.69-15.75-3.41-5.41-6.53-10.25-9.31-14.57-2.81-4.28-5.47-8.6-7.97-12.91-2.5-4.28-5.35-8.94-8.53-13.94-1.59-2.81-2.97-4.91-4.06-6.31-1.09-1.38-2.34-2.1-3.75-2.1-1.59,0-2.69.72-3.28,2.1-.59,1.41-.91,3.41-.91,6,0,3.81-.16,8.31-.44,13.5-.31,5.22-.63,10.32-.91,15.32-.31,5-.75,9.28-1.34,12.91-1.81,7.59-4.88,13.25-9.16,16.94-4.31,3.72-10.25,5.56-17.88,5.56s-13.54-1.91-17.85-5.72c-4.28-3.78-7.35-9.38-9.13-16.78-2.03-9-3.28-19.76-3.75-32.26-.53-12.5-.75-27.16-.75-43.98,0-15.79.22-30.01.75-42.6.47-12.6,1.63-23.41,3.44-32.42,1.59-7.19,4.66-12.69,9.16-16.5,4.5-3.78,10.53-5.69,18.13-5.69s13.57,1.91,17.88,5.69c4.28,3.81,7.35,9.22,9.16,16.22.97,5.41,1.69,11.53,2.09,18.44.37,6.91.59,14.16.59,21.76,0,2.41.34,4.35,1.06,5.85.69,1.5,1.84,2.16,3.44,1.97,1.41,0,2.78-.66,4.19-1.97,1.41-1.28,3.13-3.63,5.13-7.03,2.38-3.81,4.85-7.75,7.35-11.85,2.5-4.13,5.03-8.22,7.66-12.32,2.59-4.1,5.19-8.06,7.78-11.85,4-7.81,8.41-13.91,13.22-18.32,4.78-4.41,11.38-6.6,19.79-6.6,9.6,0,16.57,2.56,20.85,7.66,3.25,3.84,5.25,8.03,6.06,12.6.28,1.5.41,3.06.41,4.66,0,5.41-1.56,11.16-4.66,17.25-.66,1.31-1.38,2.63-2.19,4-2.84,5-6.53,10.44-11,16.25-5.72,7.41-12.66,15.91-20.88,25.51-.78,1.19-1.53,2.34-2.25,3.44-.69,1.09-1.03,2.34-1.03,3.75,0,1.59.28,2.91.91,3.91.59,1,1.38,2,2.38,3,4.91,5.94,9.35,11.35,13.32,16.29,1.63,2.03,3.13,3.91,4.59,5.75t0,.03c1.97,2.5,3.81,4.84,5.5,7.03,6,7.81,10.41,14.6,13.22,20.41,2.78,5.81,4.19,11.6,4.19,17.41Z"/>
  <path class="cls-2" d="M169.23,165.39c-2.81-5.81-7.22-12.6-13.22-20.41-1.69-2.19-3.53-4.53-5.5-7.03t0-.03c-1.47-1.84-2.97-3.72-4.59-5.75-3.97-4.94-8.41-10.35-13.32-16.29-1-1-1.78-2-2.38-3-.63-1-.91-2.31-.91-3.91,0-1.41.34-2.66,1.03-3.75.72-1.09,1.47-2.25,2.25-3.44,8.22-9.6,15.16-18.1,20.88-25.51,4.47-5.82,8.16-11.25,11-16.25.81-1.38,1.53-2.69,2.19-4,3.09-6.1,4.66-11.85,4.66-17.25,0-1.59-.13-3.16-.41-4.66-.81-4.56-2.81-8.75-6.06-12.6-4.28-5.09-11.25-7.66-20.85-7.66-8.41,0-15,2.19-19.79,6.6-4.81,4.41-9.22,10.5-13.22,18.32-2.59,3.78-5.19,7.75-7.78,11.85-2.63,4.1-5.16,8.19-7.66,12.32-2.5,4.1-4.97,8.03-7.35,11.85-2,3.41-3.72,5.75-5.13,7.03-1.41,1.31-2.78,1.97-4.19,1.97-1.59.19-2.75-.47-3.44-1.97-.72-1.5-1.06-3.44-1.06-5.85,0-7.6-.22-14.85-.59-21.76-.41-6.91-1.13-13.03-2.09-18.44-1.81-7-4.88-12.41-9.16-16.22-4.31-3.78-10.25-5.69-17.88-5.69s-13.63,1.91-18.13,5.69c-4.5,3.81-7.56,9.31-9.16,16.5-1.81,9-2.97,19.82-3.44,32.42-.53,12.6-.75,26.82-.75,42.6,0,16.82.22,31.48.75,43.98.47,12.5,1.72,23.26,3.75,32.26,1.78,7.41,4.84,13,9.13,16.78,4.31,3.81,10.25,5.72,17.85,5.72s13.57-1.84,17.88-5.56c4.28-3.69,7.35-9.35,9.16-16.94.59-3.63,1.03-7.91,1.34-12.91.28-5,.59-10.1.91-15.32.28-5.19.44-9.69.44-13.5,0-2.59.31-4.6.91-6,.59-1.38,1.69-2.1,3.28-2.1,1.41,0,2.66.72,3.75,2.1,1.09,1.41,2.47,3.5,4.06,6.31,3.19,5,6.03,9.66,8.53,13.94,2.5,4.31,5.16,8.63,7.97,12.91,2.78,4.31,5.91,9.16,9.31,14.57,2.78,5.78,6.69,11.03,11.69,15.75,5,4.69,12.41,7.03,22.19,7.03,6,0,11.07-1.25,15.16-3.75,1.75-1.06,3.31-2.31,4.69-3.69,1.5-1.5,2.75-3.16,3.75-5.03.28-.44.5-.87.72-1.31,2-4.22,3-8.72,3-13.5,0-5.81-1.41-11.6-4.19-17.41Z"/>
  <path class="cls-2" d="M169.24,165.38c-2.81-5.82-7.24-12.6-13.23-20.4-1.7-2.2-3.53-4.53-5.51-7.04t0-.04c-1.46-1.83-2.96-3.7-4.58-5.75-2.64,6.54-3.94,14.08-3.94,22.43,0,12.66,3.33,23.95,9.94,33.54,3.84,5.62,8.54,10.46,14.03,14.54,1.5-1.5,2.75-3.16,3.75-5.03.28-.44.5-.87.72-1.31,2-4.23,3.01-8.72,3.01-13.51,0-5.82-1.42-11.59-4.18-17.41ZM324.42,186.09c-6.28-9.61-12.29-21.31-17.83-34.83-3.05-7.54-5.95-15.6-8.72-24.02-2.48-7.63-4.69-15.32-6.58-22.82-1.15,1.98-2.27,3.75-3.27,5.3-1.98,3.09-3.68,4.64-5.08,4.64-1,0-2.16-.65-3.44-1.94-1.31-1.31-2.66-2.88-4.08-4.64-1.98-2.22-3.68-4.23-5.08-6.02-1.42-1.81-2.09-3.2-2.09-4.21,0-1.37.76-3.01,2.38-4.79,1.61-1.81,3.2-3.81,4.79-5.99,3.6-4.01,6.58-8.35,8.85-13.08.35-.68.63-1.37.92-2.09t0-.06c-.63-5.84-.98-11.4-.98-16.58s.26-9.92.78-14.25c-2.44-6.25-6.52-11.59-12.25-16.04-10-7.82-23.91-11.72-41.73-11.72-19.4,0-34.28,4.25-44.7,12.75-3.6,2.94-6.56,6.23-8.91,9.83.11,1.05.17,2.16.17,3.25,0,6.34-1.83,13.12-5.36,20.07-.46.89-.94,1.83-1.46,2.77.15,5.08.92,9.41,2.22,13.01,1.5,4.1,3.12,7.56,4.93,10.35,1.61,2.4,2.94,4.47,4.08,6.15,1.09,1.7,1.61,3.36,1.61,4.95s-.68,3.23-2.09,4.82c-1.39,1.59-3.49,3.31-6.28,5.1-4.4,2.99-8.65,6.73-12.75,11.25-3.68,4.03-6.78,8.69-9.33,13.99,2.88,3.64,5.51,6.95,7.82,9.96,6.21,8.09,10.87,15.3,13.88,21.49,3.18,6.63,4.82,13.42,4.82,20.14,0,5.69-1.22,11.16-3.6,16.19-.35.72-.72,1.42-1.09,2.09v.04c1.94,1.11,3.97,2.18,6.08,3.12,10.11,4.51,21.44,6.76,34.08,6.76,13.6,0,24.28-1.79,32.1-5.4,7.78-3.6,14.1-7.61,18.87-12.01,2.62-2.2,4.55-4.01,5.88-5.38,1.26-1.39,2.62-2.11,4.03-2.11,1.59,0,3.31.87,5.08,2.55,1.83,1.7,3.81,3.86,6.04,6.45,3.38,3.81,7.19,7.34,11.38,10.66,4.23,3.31,9,4.97,14.43,4.97,8,0,14.14-2.81,18.44-8.41.96-1.24,1.85-2.57,2.59-3.9-3.38-3.64-6.56-7.71-9.57-12.31ZM218.57,56.92c2.7-2.72,6.54-4.05,11.55-4.05s8.72,1.24,11.11,3.75c2.38,2.48,3.6,5.84,3.6,10.07,0,3.18-.74,6.12-2.24,8.85-1.5,2.68-3.47,4.84-5.84,6.43-2.42,1.59-5.01,2.4-7.82,2.4-2.59,0-4.93-.83-7.06-2.55-2.09-1.7-3.84-3.86-5.25-6.45-1.37-2.59-2.09-5.3-2.09-8.09,0-4.23,1.35-7.67,4.05-10.35ZM246.34,158.32c-1.81,2.14-4.34,3.97-7.65,5.56-3.31,1.59-7.06,2.42-11.27,2.42-5.8,0-10.81-1.66-14.99-4.97-4.18-3.29-6.32-7.63-6.32-13.03,0-3.01.57-5.91,1.66-8.74,1.09-2.77,2.57-5.19,4.38-7.17,1.79-2,3.68-3.66,5.69-4.99,2-1.26,3.79-1.92,5.4-1.92s3.09.5,4.51,1.48c1.37,1,2.94,2.48,4.62,4.36,1.72,1.9,3.75,4.25,6.17,7.06,3.4,3.6,5.99,6.41,7.8,8.41,1.79,2,2.68,3.9,2.68,5.69s-.89,3.75-2.68,5.84ZM332.36,158.54c-2.7-2.51-5.56-5.03-8.52-7.63-1.05-1.07-1.94-2.16-2.7-3.25-.44-.7-.44-1.02-.44-1.2,0-.24.26-.96,1.2-2.09,1.9-2.18,4.1-4.97,6.69-8.39,5.82-8.32,10.24-15.95,13.18-22.71,3.16-7.15,4.75-13.97,4.75-20.22,0-7.8-2.03-14.32-6.04-19.35-4.31-5.43-10.87-8.17-19.44-8.17-5.16,0-9.65,1.18-13.38,3.49-3.6,2.24-6.69,5.69-9.15,10.16-1.59,2.79-3.09,5.47-4.6,8.04.57,3.07,1.22,6.15,1.94,9.31.28,1.35.59,2.7.94,4.03,2,8.24,4.34,16.47,7.04,24.76,2.72,8.32,5.56,16.17,8.56,23.58,5.4,13.19,11.16,24.43,17.26,33.76,2.24,3.44,4.58,6.56,7,9.41,1.59,1.83,3.18,3.55,4.84,5.12,1.74-4.31,2.64-8.94,2.64-13.8,0-5.93-1.29-11.03-3.79-15.12-2.18-3.55-4.88-6.84-7.98-9.72ZM291.41,39.99c-.61,4.47-.94,9.46-.94,14.97s.39,11.16,1.13,17.35c1.59-4.69,2.4-10.09,2.4-16.13s-.87-11.27-2.59-16.19ZM170.91,34.1c-4.27,7.34-6.43,15.82-6.43,25.35v.57c.81-1.37,1.53-2.68,2.18-3.99,3.09-6.1,4.66-11.86,4.66-17.26,0-1.59-.13-3.16-.41-4.66Z"/>
  <path class="cls-1" d="M291.29,104.43c-1.16,1.97-2.25,3.75-3.25,5.28-2,3.1-3.69,4.66-5.1,4.66-1,0-2.16-.66-3.44-1.94-1.31-1.31-2.66-2.88-4.06-4.66-2-2.22-3.69-4.22-5.1-6-1.41-1.81-2.09-3.22-2.09-4.22,0-1.38.78-3,2.38-4.78,1.63-1.81,3.22-3.81,4.81-6,3.59-4,6.56-8.35,8.85-13.07.34-.69.63-1.38.91-2.09.22,1.91.47,3.84.75,5.81.22,1.59.47,3.16.75,4.78-1.88,3-4,5.85-6.38,8.5-1.66,2.25-3.34,4.35-5,6.22-.16.19-.31.34-.41.5.09.13.22.31.38.5,1.28,1.66,2.88,3.56,4.78,5.63l.31.38c.78,1,1.5,1.87,2.22,2.69.06-.09.12-.19.19-.28,1.81-2.84,4-6.41,6.44-10.72.44,2.12.94,4.28,1.47,6.44.19.78.38,1.56.59,2.37Z"/>
  <path class="cls-1" d="M338.55,202.93c-.66,1.09-1.41,2.16-2.19,3.19-5.53,7.19-13.41,10.85-23.41,10.85-6.81,0-12.94-2.13-18.26-6.31-4.5-3.53-8.6-7.35-12.22-11.38-2.16-2.56-4-4.57-5.63-6.1-.22-.19-.38-.34-.53-.47-1.47,1.56-3.47,3.41-6.13,5.66-5.06,4.66-11.97,9.03-20.35,12.91-8.69,4.03-20.07,5.97-34.7,5.97-13.44,0-25.76-2.44-36.63-7.28-2.53-1.13-4.97-2.41-7.28-3.78,1.44-1.56,2.69-3.22,3.75-5.06,1.94,1.12,3.97,2.19,6.1,3.13,10.1,4.5,21.44,6.75,34.07,6.75,13.6,0,24.29-1.78,32.1-5.41,7.78-3.59,14.1-7.59,18.88-12,2.63-2.19,4.56-4,5.88-5.38,1.28-1.41,2.63-2.13,4.03-2.13,1.59,0,3.31.87,5.1,2.56,1.81,1.69,3.81,3.84,6.03,6.44,3.38,3.81,7.19,7.35,11.38,10.66,4.22,3.31,9,4.97,14.41,4.97,8,0,14.16-2.81,18.44-8.41.97-1.25,1.84-2.56,2.59-3.91,1.47,1.63,3,3.16,4.56,4.53Z"/>
  <path class="cls-1" d="M183.61,96.06c0,1.63-.69,3.22-2.09,4.81-1.41,1.59-3.5,3.31-6.28,5.1-4.41,3-8.66,6.75-12.75,11.25-3.69,4.03-6.78,8.69-9.31,14-1.38-1.72-2.81-3.5-4.31-5.35,2.53-4.78,5.56-9.1,9-12.88,4.41-4.81,9.06-8.94,13.85-12.19,3-1.94,4.44-3.25,5.13-4.06.47-.53.56-.84.56-.84-.03,0-.06-.47-.66-1.41-1.09-1.66-2.44-3.69-4-6.06-2.13-3.25-3.97-7.16-5.63-11.66-.72-1.97-1.28-4.09-1.69-6.41,2.03-3.03,3.81-5.94,5.35-8.75.16,5.06.91,9.41,2.22,13,1.5,4.1,3.13,7.56,4.94,10.35,1.59,2.41,2.94,4.47,4.06,6.16,1.09,1.69,1.63,3.34,1.63,4.94Z"/>
  <path class="cls-1" d="M286.85,30.73c-.06.22-.13.47-.19.69-.72,2.84-1.25,5.94-1.66,9.28-2.44-6.25-6.53-11.6-12.25-16.04-10-7.81-23.91-11.72-41.73-11.72-19.41,0-34.29,4.25-44.7,12.75-3.6,2.94-6.56,6.22-8.91,9.82-.25-2.78-.88-5.44-1.84-8,2-2.38,4.25-4.6,6.78-6.66,11.5-9.38,27.88-14.16,48.67-14.16,19.16,0,34.48,4.38,45.57,13.03,4.19,3.25,7.6,6.91,10.25,11Z"/>
  <path class="cls-1" d="M174.98,201.08v.03c-1.06,1.84-2.31,3.5-3.75,5.06-1.84-1.09-3.59-2.28-5.28-3.53,1.5-1.5,2.75-3.16,3.75-5.03,1.69,1.28,3.44,2.44,5.28,3.47Z"/>
  <path class="cls-1" d="M153.16,131.22c-.31.63-.63,1.25-.91,1.91-.66,1.53-1.25,3.13-1.75,4.78-1.47-1.84-2.97-3.72-4.59-5.75.19-.53.41-1.06.63-1.56.72-1.63,1.5-3.19,2.31-4.72,1.5,1.85,2.94,3.63,4.31,5.35Z"/>
  <path class="cls-1" d="M170.74,59.45c0,.72,0,1.44.02,2.16-1.53,2.81-3.31,5.73-5.34,8.76-.61-3.14-.92-6.6-.94-10.35.81-1.37,1.53-2.68,2.18-3.99,3.09-6.1,4.66-11.86,4.66-17.26,0-1.59-.13-3.16-.41-4.66,1.35-2.31,2.92-4.53,4.66-6.6.96,2.57,1.59,5.23,1.83,8.02-4.47,6.78-6.67,14.78-6.67,23.93Z"/>
  <path class="cls-2" d="M169.24,165.38c-2.81-5.82-7.24-12.6-13.23-20.4-1.7-2.2-3.53-4.53-5.51-7.04-1.53,4.93-2.27,10.5-2.27,16.63,0,11.4,2.94,21.4,8.85,30.01,3.47,5.1,7.69,9.44,12.62,13.03.28-.44.5-.87.72-1.31,2-4.23,3.01-8.72,3.01-13.51,0-5.82-1.42-11.59-4.18-17.41ZM328.11,163.14c-2.72-2.51-5.56-5.06-8.56-7.67-1.39-1.4-2.59-2.83-3.6-4.34-1-1.5-1.5-3.05-1.5-4.66,0-1.98.92-4.03,2.7-6.15,1.81-2.09,3.9-4.75,6.32-7.93,5.58-8.02,9.81-15.21,12.6-21.62,2.81-6.41,4.21-12.31,4.21-17.72,0-6.36-1.55-11.53-4.64-15.43-3.09-3.92-7.95-5.86-14.58-5.86-3.99,0-7.34.85-10.02,2.55-2.72,1.7-5.08,4.36-7.06,7.95-2.92,5.08-5.6,9.83-8.11,14.25.28,1.35.59,2.7.94,4.03,2,8.24,4.34,16.47,7.04,24.76,2.72,8.32,5.56,16.17,8.56,23.58,5.4,13.19,11.16,24.43,17.26,33.76,2.24,3.44,4.58,6.56,7,9.41.81-2.77,1.22-5.64,1.22-8.67,0-4.82-.98-8.74-2.85-11.83-1.9-3.1-4.21-5.91-6.91-8.41ZM324.42,186.09c-6.28-9.61-12.29-21.31-17.83-34.83-3.05-7.54-5.95-15.6-8.72-24.02-2.48-7.63-4.69-15.32-6.58-22.82-1.15,1.98-2.27,3.75-3.27,5.3-1.98,3.09-3.68,4.64-5.08,4.64-1,0-2.16-.65-3.44-1.94-1.31-1.31-2.66-2.88-4.08-4.64-1.98-2.22-3.68-4.23-5.08-6.02-1.42-1.81-2.09-3.2-2.09-4.21,0-1.37.76-3.01,2.38-4.79,1.61-1.81,3.2-3.81,4.79-5.99,3.6-4.01,6.58-8.35,8.85-13.08.35-.68.63-1.37.92-2.09t0-.06c-.63-5.84-.98-11.4-.98-16.58s.26-9.92.78-14.25c-2.44-6.25-6.52-11.59-12.25-16.04-10-7.82-23.91-11.72-41.73-11.72-19.4,0-34.28,4.25-44.7,12.75-3.6,2.94-6.56,6.23-8.91,9.83.11,1.05.17,2.16.17,3.25,0,6.34-1.83,13.12-5.36,20.07-.46.89-.94,1.83-1.46,2.77.15,5.08.92,9.41,2.22,13.01,1.5,4.1,3.12,7.56,4.93,10.35,1.61,2.4,2.94,4.47,4.08,6.15,1.09,1.7,1.61,3.36,1.61,4.95s-.68,3.23-2.09,4.82c-1.39,1.59-3.49,3.31-6.28,5.1-4.4,2.99-8.65,6.73-12.75,11.25-3.68,4.03-6.78,8.69-9.33,13.99,2.88,3.64,5.51,6.95,7.82,9.96,6.21,8.09,10.87,15.3,13.88,21.49,3.18,6.63,4.82,13.42,4.82,20.14,0,5.69-1.22,11.16-3.6,16.19-.35.72-.72,1.42-1.09,2.09v.04c1.94,1.11,3.97,2.18,6.08,3.12,10.11,4.51,21.44,6.76,34.08,6.76,13.6,0,24.28-1.79,32.1-5.4,7.78-3.6,14.1-7.61,18.87-12.01,2.62-2.2,4.55-4.01,5.88-5.38,1.26-1.39,2.62-2.11,4.03-2.11,1.59,0,3.31.87,5.08,2.55,1.83,1.7,3.81,3.86,6.04,6.45,3.38,3.81,7.19,7.34,11.38,10.66,4.23,3.31,9,4.97,14.43,4.97,8,0,14.14-2.81,18.44-8.41.96-1.24,1.85-2.57,2.59-3.9-3.38-3.64-6.56-7.71-9.57-12.31ZM218.57,56.92c2.7-2.72,6.54-4.05,11.55-4.05s8.72,1.24,11.11,3.75c2.38,2.48,3.6,5.84,3.6,10.07,0,3.18-.74,6.12-2.24,8.85-1.5,2.68-3.47,4.84-5.84,6.43-2.42,1.59-5.01,2.4-7.82,2.4-2.59,0-4.93-.83-7.06-2.55-2.09-1.7-3.84-3.86-5.25-6.45-1.37-2.59-2.09-5.3-2.09-8.09,0-4.23,1.35-7.67,4.05-10.35ZM246.34,158.32c-1.81,2.14-4.34,3.97-7.65,5.56-3.31,1.59-7.06,2.42-11.27,2.42-5.8,0-10.81-1.66-14.99-4.97-4.18-3.29-6.32-7.63-6.32-13.03,0-3.01.57-5.91,1.66-8.74,1.09-2.77,2.57-5.19,4.38-7.17,1.79-2,3.68-3.66,5.69-4.99,2-1.26,3.79-1.92,5.4-1.92s3.09.5,4.51,1.48c1.37,1,2.94,2.48,4.62,4.36,1.72,1.9,3.75,4.25,6.17,7.06,3.4,3.6,5.99,6.41,7.8,8.41,1.79,2,2.68,3.9,2.68,5.69s-.89,3.75-2.68,5.84Z"/>
  <path class="cls-1" d="M241.25,56.61c-2.41-2.5-6.13-3.75-11.13-3.75s-8.85,1.34-11.53,4.06c-2.72,2.69-4.06,6.13-4.06,10.35,0,2.78.72,5.5,2.09,8.1,1.41,2.59,3.16,4.75,5.25,6.44,2.13,1.72,4.47,2.56,7.06,2.56,2.81,0,5.41-.81,7.81-2.41,2.38-1.59,4.35-3.75,5.85-6.44,1.5-2.72,2.25-5.66,2.25-8.85,0-4.22-1.22-7.56-3.59-10.06ZM237.12,72.49c-1.03,1.81-2.28,3.22-3.84,4.28-1.38.91-2.75,1.34-4.35,1.34-1.16,0-2.13-.34-3.13-1.16-1.44-1.19-2.69-2.69-3.66-4.56-.94-1.69-1.38-3.38-1.38-5.13,0-2.53.72-4.44,2.22-5.94s3.84-2.22,7.13-2.22c2.22,0,5.16.31,6.6,1.81,1.25,1.31,1.88,3.19,1.88,5.75,0,2.13-.47,4.03-1.47,5.82Z"/>
  <path class="cls-1" d="M246.34,146.79c-1.81-2-4.41-4.81-7.81-8.41-2.41-2.81-4.44-5.16-6.16-7.06-1.69-1.88-3.25-3.34-4.63-4.35-1.41-1-2.91-1.5-4.5-1.5s-3.41.66-5.41,1.94c-2,1.31-3.91,2.97-5.69,4.97-1.81,2-3.28,4.41-4.38,7.19-1.09,2.81-1.66,5.72-1.66,8.72,0,5.41,2.13,9.75,6.31,13.03,4.19,3.31,9.19,4.97,15,4.97,4.19,0,7.94-.81,11.25-2.41,3.31-1.59,5.84-3.44,7.66-5.56,1.78-2.1,2.69-4.03,2.69-5.85s-.91-3.69-2.69-5.69ZM241.59,154.26c-1.22,1.44-3.13,2.78-5.63,4-2.44,1.19-5.28,1.78-8.53,1.78-4.41,0-8.03-1.19-11.13-3.63-2.72-2.12-3.94-4.63-3.94-8.13,0-2.25.41-4.35,1.22-6.44.84-2.06,1.91-3.84,3.19-5.28,1.44-1.59,2.94-2.91,4.47-3.91,1.34-.84,1.94-.94,2-.94.12,0,.38,0,.84.34.72.5,1.94,1.5,3.63,3.41,1.69,1.88,3.72,4.22,6.28,7.19,3.34,3.56,5.91,6.35,7.69,8.32.84.91,1.06,1.44,1.09,1.44-.03.16-.25.78-1.19,1.84Z"/>
  <path class="cls-1" d="M179.67,182.8c0,5.69-1.22,11.16-3.59,16.19-.34.72-.72,1.41-1.09,2.09-1.84-1.03-3.59-2.19-5.28-3.47.28-.44.5-.87.72-1.31,2-4.22,3-8.72,3-13.5,0-5.81-1.41-11.6-4.19-17.41-2.81-5.81-7.22-12.6-13.22-20.41-1.69-2.19-3.53-4.53-5.5-7.03t0-.03c.5-1.66,1.09-3.25,1.75-4.78.28-.66.59-1.28.91-1.91,2.88,3.63,5.5,6.94,7.81,9.94,6.22,8.1,10.88,15.32,13.88,21.51,3.19,6.63,4.81,13.41,4.81,20.13Z"/>
  <path class="cls-1" d="M177.58,38.77c0,6.34-1.83,13.12-5.36,20.07-.46.89-.94,1.83-1.46,2.77-.02-.72-.02-1.44-.02-2.16,0-9.15,2.2-17.15,6.67-23.93.11,1.05.17,2.16.17,3.25Z"/>
  <path class="cls-1" d="M291.6,72.31c-.48,1.46-1.02,2.83-1.68,4.16-.98,1.96-2.05,3.86-3.23,5.73-.28-1.61-.54-3.18-.76-4.77-.28-1.96-.52-3.9-.74-5.82t0-.06c1.72-4.27,2.57-9.37,2.57-15.36,0-5.67-.92-10.83-2.77-15.47.41-3.36.94-6.45,1.66-9.28.07-.22.13-.48.2-.7,1.9,2.88,3.4,5.95,4.55,9.22v.04c-.61,4.47-.94,9.46-.94,14.97s.39,11.16,1.13,17.35Z"/>
  <path class="cls-1" d="M287.77,56.18c0,5.99-.85,11.09-2.57,15.36-.63-5.84-.98-11.4-.98-16.58s.26-9.92.78-14.25c1.85,4.64,2.77,9.81,2.77,15.47Z"/>
  <path class="cls-1" d="M293.92,87.21c-1.47,2.63-2.91,5.16-4.25,7.59-.16.25-.31.53-.44.78-1-4.53-1.84-9-2.53-13.38,1.19-1.88,2.25-3.78,3.22-5.75.66-1.31,1.22-2.69,1.69-4.16.16,1.41.34,2.81.53,4.25.5,3.5,1.09,7.07,1.78,10.66Z"/>
  <path class="cls-1" d="M295.85,96.53c-.25.44-.5.91-.75,1.34-1.34,2.38-2.63,4.56-3.81,6.56-.22-.81-.41-1.59-.59-2.37-.53-2.16-1.03-4.31-1.47-6.44v-.03c.13-.25.28-.53.44-.78,1.34-2.44,2.78-4.97,4.25-7.59.56,3.06,1.22,6.16,1.94,9.31Z"/>
  <path class="cls-1" d="M336.65,192.05c-.63,2.22-1.5,4.31-2.66,6.34-3.38-3.63-6.56-7.72-9.57-12.32-6.28-9.6-12.28-21.32-17.82-34.82-3.06-7.53-5.97-15.6-8.72-24.01-2.5-7.63-4.69-15.32-6.6-22.82,1.19-2,2.47-4.19,3.81-6.56.25-.44.5-.91.75-1.34.28,1.34.59,2.69.94,4.03,2,8.22,4.35,16.47,7.03,24.76,2.72,8.32,5.56,16.16,8.57,23.57,5.41,13.19,11.16,24.44,17.25,33.76,2.25,3.44,4.6,6.56,7,9.41Z"/>
  <path class="cls-1" d="M394.69,51.8v.03c-.03.16-.06.28-.09.44-.78,5.19-1.63,9.94-2.53,14.25-.91,4.28-1.72,8.41-2.41,12.29-.72,3.91-1.5,7.88-2.41,11.88-.91,4-1.94,8.28-3.16,12.88-2,9-3.88,15.38-5.69,19.07-1.81,3.69-3.59,5.56-5.41,5.56-1.59,0-3.28-1.88-5.1-5.56-1.81-3.69-3.91-10.06-6.31-19.07-.78-4.6-1.63-8.88-2.53-12.88-.91-4-1.72-7.97-2.41-11.88-.72-3.88-1.5-8-2.41-12.29-.91-4.31-1.75-9.06-2.53-14.25-2.41-13.22-5.75-22.98-10.07-29.26-4.31-6.31-11.16-9.47-20.57-9.47-8.6,0-15.1,1.72-19.51,5.13-4.38,3.38-7.35,8.13-8.85,14.25-.53,2.19-.97,4.53-1.31,7.03-1.16-3.28-2.66-6.34-4.56-9.22,1.88-7.16,5.53-12.88,10.91-17.03,5.5-4.25,13.35-6.41,23.32-6.41,11.57,0,20.19,4.1,25.73,12.19,4.85,7.1,8.47,17.44,11.03,31.67.81,5.19,1.66,9.88,2.53,14.1.91,4.35,1.72,8.5,2.44,12.47.66,3.75,1.44,7.63,2.34,11.6.88,3.97,1.75,8.31,2.56,12.91,2.5,9.41,4.28,14.32,5.44,16.88,1.09-2.53,2.75-7.44,4.84-16.88,1.22-4.72,2.28-9,3.16-12.91.87-3.84,1.66-7.72,2.34-11.6.72-3.97,1.53-8.1,2.44-12.47.88-4.16,1.69-8.85,2.5-13.94.38-2.06.75-4.06,1.19-5.97l.25.25c1.75,1.91,3.34,3.97,4.81,6.22Z"/>
  <path class="cls-1" d="M462.09,54.95c0,6.85-.59,14.41-1.72,22.47-1.13,7.97-2.72,16.25-4.78,24.63-2.03,8.31-4.44,16.78-7.16,25.19-2.75,8.41-5.66,16.47-8.72,23.97-5.53,13.54-11.6,25.29-17.97,34.88-6.63,9.94-13.94,17.63-21.66,22.85-8.13,5.5-17.22,8.28-27.07,8.28s-18.38-2.75-26.69-8.22c-2.66-1.75-5.25-3.78-7.75-6.09,1.16-1.85,2.16-3.78,2.94-5.75,2.66,2.56,5.41,4.75,8.25,6.63,7.31,4.78,15.07,7.19,23.26,7.19,8.6,0,16.47-2.41,23.57-7.19,7.1-4.81,13.75-11.85,19.94-21.16,6.19-9.31,12-20.57,17.41-33.76,3-7.41,5.85-15.25,8.56-23.57,2.69-8.28,5.03-16.54,7.03-24.76,2-8.19,3.56-16.19,4.66-24.01,1.09-7.78,1.66-15,1.66-21.6,0-8.6-.75-15.94-2.25-22.04-1.5-6.13-4.41-10.88-8.72-14.25-4.28-3.41-10.75-5.13-19.35-5.13-9.41,0-16.32,3.16-20.69,9.47-.94,1.31-1.81,2.81-2.66,4.44l-4.72-4.44c.72-1.28,1.47-2.47,2.25-3.59,5.59-8.03,14.28-12.13,25.82-12.13,10,0,17.82,2.19,23.22,6.44,5.41,4.28,9.06,10.25,10.91,17.69,1.63,6.56,2.44,14.47,2.44,23.54Z"/>
  <path class="cls-1" d="M341.49,197.18c-.78,1.97-1.78,3.91-2.94,5.75-1.56-1.38-3.09-2.91-4.56-4.53,1.16-2.03,2.03-4.13,2.66-6.34,1.59,1.84,3.19,3.56,4.85,5.13Z"/>
  <path class="cls-2" d="M455.83,54.95c0,6.6-.56,13.82-1.66,21.6-1.09,7.81-2.66,15.82-4.66,24.01-2,8.22-4.34,16.47-7.03,24.76-2.72,8.32-5.56,16.16-8.56,23.57-5.41,13.19-11.22,24.44-17.41,33.76-6.19,9.31-12.85,16.35-19.94,21.16-7.1,4.78-14.97,7.19-23.57,7.19s-15.94-2.41-23.26-7.19c-2.84-1.88-5.59-4.06-8.25-6.63-1.66-1.56-3.25-3.28-4.85-5.13-2.41-2.84-4.75-5.97-7-9.41-6.1-9.31-11.85-20.57-17.25-33.76-3-7.41-5.85-15.25-8.57-23.57-2.69-8.28-5.03-16.54-7.03-24.76-.34-1.34-.66-2.69-.94-4.03-.72-3.16-1.38-6.25-1.94-9.31-.69-3.59-1.28-7.16-1.78-10.66-.19-1.44-.37-2.84-.53-4.25-.75-6.19-1.13-11.97-1.13-17.35s.31-10.5.94-14.97v-.03c.34-2.5.78-4.85,1.31-7.03,1.5-6.13,4.47-10.88,8.85-14.25,4.41-3.41,10.91-5.13,19.51-5.13,9.41,0,16.25,3.16,20.57,9.47,4.31,6.28,7.66,16.04,10.07,29.26.78,5.19,1.63,9.94,2.53,14.25.91,4.28,1.69,8.41,2.41,12.29.69,3.91,1.5,7.88,2.41,11.88.91,4,1.75,8.28,2.53,12.88,2.41,9,4.5,15.38,6.31,19.07,1.81,3.69,3.5,5.56,5.1,5.56,1.81,0,3.59-1.88,5.41-5.56,1.81-3.69,3.69-10.06,5.69-19.07,1.22-4.6,2.25-8.88,3.16-12.88.91-4,1.69-7.97,2.41-11.88.69-3.88,1.5-8,2.41-12.29.91-4.31,1.75-9.06,2.53-14.25.03-.16.06-.28.09-.44v-.03c.53-2.88,1.09-5.63,1.75-8.16.91-3.69,1.91-7.03,3.06-10,.81-2.28,1.72-4.35,2.66-6.19.84-1.63,1.72-3.13,2.66-4.44,4.38-6.31,11.28-9.47,20.69-9.47,8.6,0,15.07,1.72,19.35,5.13,4.31,3.38,7.22,8.13,8.72,14.25,1.5,6.09,2.25,13.44,2.25,22.04Z"/>
  <path class="cls-2" d="M453.58,32.92c-1.5-6.13-4.41-10.88-8.72-14.25-4.28-3.41-10.75-5.13-19.35-5.13-9.41,0-16.32,3.16-20.69,9.47-.94,1.31-1.81,2.81-2.66,4.44-.94,1.84-1.84,3.91-2.66,6.19-1.16,2.97-2.16,6.31-3.06,10-.66,2.53-1.22,5.28-1.75,8.16v.03c-.03.16-.06.28-.09.44-.78,5.19-1.63,9.94-2.53,14.25-.91,4.28-1.72,8.41-2.41,12.29-.72,3.91-1.5,7.88-2.41,11.88-.91,4-1.94,8.28-3.16,12.88-2,9-3.88,15.38-5.69,19.07-1.81,3.69-3.59,5.56-5.41,5.56-1.59,0-3.28-1.88-5.1-5.56-1.81-3.69-3.91-10.06-6.31-19.07-.78-4.6-1.63-8.88-2.53-12.88-.91-4-1.72-7.97-2.41-11.88-.72-3.88-1.5-8-2.41-12.29-.91-4.31-1.75-9.06-2.53-14.25-2.41-13.22-5.75-22.98-10.07-29.26-4.31-6.31-11.16-9.47-20.57-9.47-8.6,0-15.1,1.72-19.51,5.13-4.38,3.38-7.35,8.13-8.85,14.25-.53,2.19-.97,4.53-1.31,7.03v.03c-.63,4.47-.94,9.47-.94,14.97s.38,11.16,1.13,17.35c.16,1.41.34,2.81.53,4.25.5,3.5,1.09,7.07,1.78,10.66.56,3.06,1.22,6.16,1.94,9.31.28,1.34.59,2.69.94,4.03,2,8.22,4.35,16.47,7.03,24.76,2.72,8.32,5.56,16.16,8.57,23.57,5.41,13.19,11.16,24.44,17.25,33.76,2.25,3.44,4.6,6.56,7,9.41,1.59,1.84,3.19,3.56,4.85,5.13,2.66,2.56,5.41,4.75,8.25,6.63,7.31,4.78,15.07,7.19,23.26,7.19,8.6,0,16.47-2.41,23.57-7.19,7.1-4.81,13.75-11.85,19.94-21.16,6.19-9.31,12-20.57,17.41-33.76,3-7.41,5.85-15.25,8.56-23.57,2.69-8.28,5.03-16.54,7.03-24.76,2-8.19,3.56-16.19,4.66-24.01,1.09-7.78,1.66-15,1.66-21.6,0-8.6-.75-15.94-2.25-22.04Z"/>
  <g>
    <path class="cls-1" d="M402.16,27.45c-.94,1.84-1.84,3.91-2.66,6.19-.53-.53-1.06-1.06-1.59-1.56-.13.22-.22.44-.34.66-1.13,2.34-2.16,5.22-3.09,8.6.69.75,1.34,1.53,1.97,2.31-.66,2.53-1.22,5.28-1.75,8.16-1.47-2.25-3.06-4.31-4.81-6.22l-.25-.25v-.03c2.03-9.25,4.63-16.57,7.81-22.29l4.72,4.44Z"/>
    <path class="cls-1" d="M397.44,23.01c-3.19,5.72-5.78,13.03-7.81,22.29l-2.09-2.28.91-3.34c1.03-3.72,2.22-6.97,3.47-9.63l.16-.28.12-.25c.09-.16.22-.41.38-.66l4-6.66.87.81Z"/>
    <path class="cls-1" d="M411.57,38.35l-1.22,3.22c-.97,2.56-1.94,6.1-2.88,10.47l-6.72-.72-3.91,3.72-1.75-1.81v-.81c-.12-.19-.25-.41-.41-.59v-.03c.53-2.88,1.09-5.63,1.75-8.16.91-3.69,1.91-7.03,3.06-10,.81-2.28,1.72-4.35,2.66-6.19l.06.06c2.69,2.56,5.13,5.28,7.25,8.1l2.09,2.75Z"/>
    <path class="cls-1" d="M399.51,33.63c-1.16,2.97-2.16,6.31-3.06,10-.63-.78-1.28-1.56-1.97-2.31.94-3.38,1.97-6.25,3.09-8.6.12-.22.22-.44.34-.66.53.5,1.06,1.03,1.59,1.56Z"/>
    <path class="cls-1" d="M404.51,39.35c-1.13,2.97-2.16,6.78-3.13,11.38,0-.03-.06-.03-.06-.09-1.41-2.44-3.03-4.78-4.88-7,.91-3.69,1.91-7.03,3.06-10,1.81,1.81,3.47,3.72,5,5.72Z"/>
  </g>
</svg>